<?xml version="1.0" encoding="utf-8"?>
<!-- Generator: Adobe Illustrator 16.0.0, SVG Export Plug-In . SVG Version: 6.00 Build 0)  -->
<!DOCTYPE svg PUBLIC "-//W3C//DTD SVG 1.1//EN" "http://www.w3.org/Graphics/SVG/1.1/DTD/svg11.dtd">
<svg version="1.1" id="Layer_1" xmlns="http://www.w3.org/2000/svg" xmlns:xlink="http://www.w3.org/1999/xlink" x="0px" y="0px"
	 width="9.203px" height="6.422px" viewBox="0 0 9.203 6.422" enable-background="new 0 0 9.203 6.422" xml:space="preserve">
<g>
	<path fill="#00AEEF" d="M8.25,6.188H0.983c-0.5,0-0.905-0.406-0.905-0.906V1.283c0-0.498,0.406-0.905,0.905-0.905H8.25
		c0.5,0,0.906,0.407,0.906,0.905v3.999C9.156,5.781,8.75,6.188,8.25,6.188z M0.983,0.789c-0.272,0-0.493,0.222-0.493,0.494v3.999
		c0,0.272,0.221,0.494,0.493,0.494H8.25c0.273,0,0.496-0.222,0.496-0.494V1.283c0-0.272-0.223-0.494-0.496-0.494H0.983z"/>
</g>
<g>
	<path fill="#00AEEF" d="M4.688,4.333c-0.35,0-0.611-0.206-0.799-0.353C3.602,3.756,0.567,0.962,0.438,0.844l0.279-0.303
		c1.088,1.002,3.205,2.946,3.424,3.117c0.354,0.275,0.602,0.414,1.088,0.021c0.707-0.572,3.324-3.033,3.35-3.059l0.283,0.298
		C8.754,1.02,6.207,3.415,5.488,3.997C5.182,4.245,4.916,4.333,4.688,4.333z"/>
</g>
<g>
	<path fill="#00AEEF" d="M5.943,1.487c0,0.095-0.074,0.17-0.168,0.17H2.768c-0.094,0-0.172-0.075-0.172-0.17l0,0
		c0-0.093,0.078-0.168,0.172-0.168h3.008C5.869,1.319,5.943,1.395,5.943,1.487L5.943,1.487z"/>
</g>
<g>
	<path fill="#00AEEF" d="M6.807,1.489c0,0.098-0.078,0.177-0.178,0.177H6.336c-0.096,0-0.176-0.079-0.176-0.177l0,0
		c0-0.099,0.08-0.177,0.176-0.177h0.293C6.729,1.312,6.807,1.391,6.807,1.489L6.807,1.489z"/>
</g>
<g>
	
		<rect x="1.789" y="2.637" transform="matrix(0.6327 0.7744 -0.7744 0.6327 4.272 0.1344)" fill="#00AEEF" width="0.41" height="3.866"/>
</g>
<g>
	
		<rect x="5.32" y="4.335" transform="matrix(0.7637 0.6455 -0.6455 0.7637 4.6333 -3.5796)" fill="#00AEEF" width="3.775" height="0.411"/>
</g>
</svg>
