<?xml version="1.0" encoding="utf-8"?>
<!-- Generator: Adobe Illustrator 16.0.0, SVG Export Plug-In . SVG Version: 6.00 Build 0)  -->
<!DOCTYPE svg PUBLIC "-//W3C//DTD SVG 1.1//EN" "http://www.w3.org/Graphics/SVG/1.1/DTD/svg11.dtd">
<svg version="1.1" id="Layer_1" xmlns="http://www.w3.org/2000/svg" xmlns:xlink="http://www.w3.org/1999/xlink" x="0px" y="0px"
	 width="88.65px" height="88.65px" viewBox="0 0 88.65 88.65" enable-background="new 0 0 88.65 88.65" xml:space="preserve">
<defs>
	<filter id="Adobe_OpacityMaskFilter" filterUnits="userSpaceOnUse" x="-2.804" y="76.624" width="93.688" height="13.55">
		<feColorMatrix  type="matrix" values="1 0 0 0 0  0 1 0 0 0  0 0 1 0 0  0 0 0 1 0"/>
	</filter>
</defs>
<mask maskUnits="userSpaceOnUse" x="-2.804" y="76.624" width="93.688" height="13.55" id="SVGID_1_">
	<g filter="url(#Adobe_OpacityMaskFilter)">
		
			<radialGradient id="SVGID_2_" cx="680.6035" cy="1764.1465" r="28.3511" gradientTransform="matrix(-1.6526 0.0029 0.0124 -0.2389 1146.929 502.8805)" gradientUnits="userSpaceOnUse">
			<stop  offset="0" style="stop-color:#FFFFFF"/>
			<stop  offset="0.0533" style="stop-color:#DCDAD9"/>
			<stop  offset="0.2484" style="stop-color:#8B8887"/>
			<stop  offset="0.4353" style="stop-color:#575453"/>
			<stop  offset="0.6087" style="stop-color:#353333"/>
			<stop  offset="0.7659" style="stop-color:#1D1D1C"/>
			<stop  offset="0.9016" style="stop-color:#0C0B0B"/>
			<stop  offset="1" style="stop-color:#030303"/>
		</radialGradient>
		<path fill="url(#SVGID_2_)" d="M-2.802,83.486c0.221-3.738,21.358-6.815,47.234-6.861c25.865-0.046,46.647,2.953,46.451,6.695
			c-0.097,3.739-21.268,6.807-47.174,6.854C17.794,90.216-3.048,87.226-2.802,83.486z"/>
	</g>
</mask>
<path mask="url(#SVGID_1_)" fill="#010101" d="M-2.802,83.486c0.221-3.738,21.358-6.815,47.234-6.861
	c25.865-0.046,46.647,2.953,46.451,6.695c-0.097,3.739-21.268,6.807-47.174,6.854C17.794,90.216-3.048,87.226-2.802,83.486z"/>
<circle fill="#EBEBEB" cx="44.039" cy="44.453" r="42.191"/>
<path fill="#E42D33" d="M82.986,44.453c0,21.508-17.438,38.945-38.946,38.945c-21.509,0-38.946-17.437-38.946-38.945
	c0-5.703,1.223-11.118,3.426-15.995c6.103-13.53,19.713-22.952,35.52-22.952c15.804,0,29.417,9.422,35.519,22.952
	C81.762,33.335,82.986,38.75,82.986,44.453z"/>
<g>
	<path id="XMLID_27_" fill="#FFFFFF" d="M67.736,41.207c-0.403,0-0.797,0-1.204,0c0-0.083,0-0.162,0-0.238c0-0.314,0-0.579,0-0.837
		c0.001-1.531,0.021-3.062-0.017-4.595c-0.006-0.249-0.264-0.705-0.418-0.707c-1.399-0.055-2.8-0.034-4.279-0.034
		c0,1.835,0,3.578,0,5.35c0,0.35,0,0.697,0,1.044c-2.144,0-4.209,0-6.419,0c0,0.48-0.012,0.807,0.002,1.127
		c0.047,1.159,0.101,2.318,0.153,3.475c1.13,0.04,2.263,0.091,3.396,0.117c0.945,0.017,1.891,0.002,2.938,0.002
		c0,2.206,0,4.258,0,6.309c1.573,0,3.036,0,4.627,0c0-2.092,0-4.148,0-6.325c2.179,0,4.232,0,6.328,0c0-1.22,0-2.368,0-3.544
		c0-0.379,0-0.757,0-1.144C71.141,41.207,69.458,41.207,67.736,41.207z"/>
	<path id="XMLID_26_" fill="#FFFFFF" d="M49.57,40.667c-4,0.053-7.994,0.024-11.99,0.024c-1.142,0-2.286-0.021-3.426,0.022
		c-0.217,0.008-0.605,0.269-0.605,0.418c-0.041,2.303-0.029,4.607-0.029,7.035c3.298,0,6.489,0,9.791,0
		c-0.132,0.476-0.212,0.817-0.324,1.151c-1.502,4.452-6.101,6.658-11.029,5.85c-6.121-1.003-9.93-6.679-8.842-12.811
		c0.154-0.868,0.425-1.688,0.776-2.464c2.023-4.45,7.03-7.152,11.985-6.069c1.774,0.386,3.288,1.246,4.596,2.386
		c1.781-1.793,3.51-3.538,5.354-5.399c-0.12-0.093-0.291-0.214-0.449-0.347c-4.32-3.649-9.283-4.989-14.842-4.079
		c-7.991,1.306-13.739,7.6-15.025,14.951c-0.547,3.142-0.29,6.478,0.965,9.701c3.041,7.808,10.894,12.566,19.283,11.644
		c4.095-0.452,7.752-1.931,10.613-4.979c4.216-4.489,5.299-9.92,4.627-15.867C50.886,40.844,50.484,40.656,49.57,40.667z"/>
</g>
<path opacity="0.1" fill="#FFFFFF" d="M79.56,28.458c-6.102,13.528-19.715,22.949-35.519,22.949c-15.807,0-29.417-9.42-35.52-22.949
	c6.103-13.53,19.713-22.952,35.52-22.952C59.845,5.506,73.458,14.928,79.56,28.458z"/>
</svg>
