<?xml version="1.0" encoding="utf-8"?>
<!-- Generator: Adobe Illustrator 16.0.0, SVG Export Plug-In . SVG Version: 6.00 Build 0)  -->
<!DOCTYPE svg PUBLIC "-//W3C//DTD SVG 1.1//EN" "http://www.w3.org/Graphics/SVG/1.1/DTD/svg11.dtd">
<svg version="1.1" id="Layer_1" xmlns="http://www.w3.org/2000/svg" xmlns:xlink="http://www.w3.org/1999/xlink" x="0px" y="0px"
	 width="6px" height="9.688px" viewBox="0 0 6 9.688" enable-background="new 0 0 6 9.688" xml:space="preserve">
<g>
	<g>
		<path fill="#00AEEF" d="M3.674,0.946c0,0.056-0.045,0.101-0.101,0.101H1.8c-0.056,0-0.101-0.045-0.101-0.101l0,0
			c0-0.055,0.045-0.1,0.101-0.1h1.773C3.629,0.847,3.674,0.892,3.674,0.946L3.674,0.946z"/>
	</g>
</g>
<g>
	<g>
		<path fill="#00AEEF" d="M4.183,0.941c0,0.058-0.046,0.105-0.104,0.105H3.906c-0.058,0-0.105-0.048-0.105-0.105l0,0
			c0-0.058,0.048-0.104,0.105-0.104h0.172C4.137,0.838,4.183,0.884,4.183,0.941L4.183,0.941z"/>
	</g>
</g>
<g>
	<path fill="#00AEEF" d="M4.378,9.545H1.742c-0.792,0-1.436-0.644-1.436-1.436V1.585c0-0.792,0.645-1.436,1.436-1.436h2.636
		c0.792,0,1.437,0.644,1.437,1.436v6.524C5.814,8.901,5.17,9.545,4.378,9.545z M1.742,0.505c-0.595,0-1.08,0.484-1.08,1.08v6.524
		c0,0.595,0.485,1.08,1.08,1.08h2.636c0.595,0,1.08-0.485,1.08-1.08V1.585c0-0.596-0.485-1.08-1.08-1.08H1.742z"/>
</g>
<g>
	<path fill="#00AEEF" d="M5.03,8.24H1.09V1.455h3.94V8.24z M1.446,7.884h3.228V1.811H1.446V7.884z"/>
</g>
<g>
	<circle fill="#00AEEF" cx="2.997" cy="8.704" r="0.292"/>
</g>
</svg>
