<?xml version="1.0" encoding="utf-8"?>
<!-- Generator: Adobe Illustrator 16.0.0, SVG Export Plug-In . SVG Version: 6.00 Build 0)  -->
<!DOCTYPE svg PUBLIC "-//W3C//DTD SVG 1.1//EN" "http://www.w3.org/Graphics/SVG/1.1/DTD/svg11.dtd">
<svg version="1.1" id="Layer_1" xmlns="http://www.w3.org/2000/svg" xmlns:xlink="http://www.w3.org/1999/xlink" x="0px" y="0px"
	 width="100.75px" height="95.25px" viewBox="0 0 100.75 95.25" enable-background="new 0 0 100.75 95.25" xml:space="preserve">
<polygon fill="#A6CE39" points="47.622,37.053 57.668,18.018 68.355,37.053 "/>
<polygon fill="#93216A" points="38.22,94.16 48.271,75.119 58.958,94.16 "/>
<polygon fill="#572466" points="58.942,94.16 68.991,75.119 79.683,94.16 "/>
<polygon fill="#1AAFE6" points="79.054,56.084 89.105,37.053 99.792,56.084 "/>
<polygon fill="#0F395A" points="69.007,75.119 79.054,56.084 89.745,75.119 "/>
<polygon fill="#0A6936" points="68.355,37.053 78.403,18.018 89.091,37.053 "/>
<polygon fill="#C42126" points="36.932,18.018 47.622,37.053 57.668,18.018 "/>
<polygon fill="#F06224" points="34.46,33.77 37.022,28.914 39.75,33.77 "/>
<polygon fill="#F8A21E" points="31.734,28.914 34.46,33.77 37.022,28.914 "/>
<polygon fill="#834098" points="69.007,75.119 79.691,94.16 89.745,75.119 "/>
<polygon fill="#35A884" points="68.369,37.053 79.054,56.084 89.107,37.053 "/>
<polygon fill="#31AD4A" points="57.668,18.018 68.353,37.053 78.403,18.018 "/>
<polygon fill="#BB2080" points="48.271,75.119 58.958,94.16 69.007,75.119 "/>
<polygon fill="#127DC2" points="79.054,56.084 89.745,75.119 99.792,56.084 "/>
<polygon fill="#F27D21" points="51.874,43.858 59.104,55.555 66.015,43.858 "/>
<polygon fill="#F58126" points="66.39,67.255 59.104,55.555 52.19,67.255 "/>
<polygon fill="#F06224" points="66.015,43.858 73.243,55.555 66.388,67.255 59.104,55.555 "/>
<polygon fill="#F8A21E" points="51.874,43.858 59.104,55.555 52.243,67.255 44.962,55.555 "/>
<polygon fill="#AC1F24" points="17.978,31.58 22.642,22.738 27.606,31.58 "/>
<polygon fill="#C42126" points="13.011,22.738 17.978,31.58 22.642,22.738 "/>
<polygon fill="#572466" points="6.127,15.723 10.975,6.545 16.126,15.723 "/>
<polygon fill="#834098" points="0.977,6.545 6.127,15.723 10.975,6.545 "/>
<polygon fill="#0F395A" points="26.756,8.617 30.881,0.804 35.269,8.617 "/>
<polygon fill="#127DC2" points="22.365,0.804 26.756,8.617 30.881,0.804 "/>
<polygon fill="#0A6936" points="25.925,20.102 29.262,13.787 32.805,20.102 "/>
<polygon fill="#31AD4A" points="22.379,13.787 25.925,20.102 29.262,13.787 "/>
</svg>
